ffmpeg started on 2016-12-12 at 08:00:45
Report written to "Output/theora/results/ffmpeg/Tcrowd_run_2160p509000k.log"
Command line:
Tools/ffmpeg/ffmpeg -i Output/theora/encoded/crowd_run_2160p509000k.mkv -c:v rawvideo -pix_fmt yuv420p Output/theora/transcoded/crowd_run_2160p509000k.yuv
ffmpeg version N-82227-gdb23fde Copyright (c) 2000-2016 the FFmpeg developers
  built with gcc 5.4.0 (Ubuntu 5.4.0-6ubuntu1~16.04.2) 20160609
  configuration: --prefix=/home/jaroslav/ffmpeg_build --pkg-config-flags=--static --extra-cflags=-I/home/jaroslav/ffmpeg_build/include --extra-ldflags=-L/home/jaroslav/ffmpeg_build/lib --bindir=/home/jaroslav/bin --enable-gpl --enable-libass --enable-libfdk-aac --enable-libfreetype --enable-libmp3lame --enable-libopus --enable-libtheora --enable-libvorbis --enable-libvpx --enable-libx264 --enable-libx265 --enable-nvenc --enable-libmfx --enable-libxvid --enable-libgsm --enable-libopencore-amrnb --enable-version3 --enable-nonfree
  libavutil      55. 35.100 / 55. 35.100
  libavcodec     57. 66.101 / 57. 66.101
  libavformat    57. 57.100 / 57. 57.100
  libavdevice    57.  2.100 / 57.  2.100
  libavfilter     6. 66.100 /  6. 66.100
  libswscale      4.  3.100 /  4.  3.100
  libswresample   2.  4.100 /  2.  4.100
  libpostproc    54.  2.100 / 54.  2.100
Input #0, matroska,webm, from 'Output/theora/encoded/crowd_run_2160p509000k.mkv':
  Metadata:
    ENCODER         : Lavf57.57.100
  Duration: 00:00:10.00, start: 0.000000, bitrate: 9855 kb/s
    Stream #0:0: Video: theora, yuv420p(progressive), 3840x2160 [SAR 1:1 DAR 16:9], 50 fps, 50 tbr, 1k tbn, 50 tbc (default)
    Metadata:
      ENCODER         : Lavc57.66.101 libtheora
      DURATION        : 00:00:10.000000000
Output #0, rawvideo, to 'Output/theora/transcoded/crowd_run_2160p509000k.yuv':
  Metadata:
    encoder         : Lavf57.57.100
    Stream #0:0: Video: rawvideo (I420 / 0x30323449), yuv420p, 3840x2160 [SAR 1:1 DAR 16:9], q=2-31, 200 kb/s, 50 fps, 50 tbn, 50 tbc (default)
    Metadata:
      DURATION        : 00:00:10.000000000
      encoder         : Lavc57.66.101 rawvideo
Stream mapping:
  Stream #0:0 -> #0:0 (theora (native) -> rawvideo (native))
Press [q] to stop, [?] for help
frame=   17 fps=0.0 q=-0.0 size=  206550kB time=00:00:00.34 bitrate=4976640.0kbits/s speed=0.661x    frame=   34 fps= 33 q=-0.0 size=  413100kB time=00:00:00.68 bitrate=4976640.0kbits/s speed=0.665x    frame=   57 fps= 35 q=-0.0 size=  692550kB time=00:00:01.14 bitrate=4976640.0kbits/s dup=6 drop=0 speed=0.69x    frame=   73 fps= 34 q=-0.0 size=  886950kB time=00:00:01.46 bitrate=4976640.0kbits/s dup=16 drop=0 speed=0.678x    frame=   93 fps= 33 q=-0.0 size= 1129950kB time=00:00:01.86 bitrate=4976640.0kbits/s dup=31 drop=0 speed=0.67x    frame=  115 fps= 35 q=-0.0 size= 1397250kB time=00:00:02.30 bitrate=4976640.0kbits/s dup=47 drop=0 speed=0.701x    frame=  130 fps= 34 q=-0.0 size= 1579500kB time=00:00:02.60 bitrate=4976640.0kbits/s dup=57 drop=0 speed=0.681x    frame=  152 fps= 35 q=-0.0 size= 1846800kB time=00:00:03.04 bitrate=4976640.0kbits/s dup=73 drop=0 speed=0.699x    frame=  167 fps= 34 q=-0.0 size= 2029050kB time=00:00:03.34 bitrate=4976640.0kbits/s dup=83 drop=0 speed=0.675x    frame=  192 fps= 34 q=-0.0 size= 2332800kB time=00:00:03.84 bitrate=4976640.0kbits/s dup=101 drop=0 speed=0.678x    frame=  215 fps= 34 q=-0.0 size= 2612250kB time=00:00:04.30 bitrate=4976640.0kbits/s dup=118 drop=0 speed=0.676x    frame=  236 fps= 34 q=-0.0 size= 2867400kB time=00:00:04.72 bitrate=4976640.0kbits/s dup=134 drop=0 speed=0.687x    frame=  251 fps= 34 q=-0.0 size= 3049650kB time=00:00:05.02 bitrate=4976640.0kbits/s dup=145 drop=0 speed=0.675x    frame=  272 fps= 34 q=-0.0 size= 3304800kB time=00:00:05.44 bitrate=4976640.0kbits/s dup=161 drop=0 speed=0.68x    frame=  286 fps= 33 q=-0.0 size= 3474900kB time=00:00:05.72 bitrate=4976640.0kbits/s dup=171 drop=0 speed=0.664x    frame=  300 fps= 33 q=-0.0 size= 3645000kB time=00:00:06.00 bitrate=4976640.0kbits/s dup=181 drop=0 speed=0.658x    frame=  322 fps= 33 q=-0.0 size= 3912300kB time=00:00:06.44 bitrate=4976640.0kbits/s dup=198 drop=0 speed=0.661x    frame=  337 fps= 33 q=-0.0 size= 4094550kB time=00:00:06.74 bitrate=4976640.0kbits/s dup=208 drop=0 speed=0.657x    frame=  360 fps= 32 q=-0.0 size= 4374000kB time=00:00:07.20 bitrate=4976640.0kbits/s dup=226 drop=0 speed=0.644x    frame=  379 fps= 32 q=-0.0 size= 4604850kB time=00:00:07.58 bitrate=4976640.0kbits/s dup=241 drop=0 speed=0.646x    frame=  395 fps= 32 q=-0.0 size= 4799250kB time=00:00:07.90 bitrate=4976640.0kbits/s dup=253 drop=0 speed=0.643x    frame=  409 fps= 32 q=-0.0 size= 4969350kB time=00:00:08.18 bitrate=4976640.0kbits/s dup=263 drop=0 speed=0.639x    frame=  430 fps= 32 q=-0.0 size= 5224500kB time=00:00:08.60 bitrate=4976640.0kbits/s dup=280 drop=0 speed=0.643x    frame=  453 fps= 33 q=-0.0 size= 5503950kB time=00:00:09.06 bitrate=4976640.0kbits/s dup=298 drop=0 speed=0.651x    frame=  469 fps= 32 q=-0.0 size= 5698350kB time=00:00:09.38 bitrate=4976640.0kbits/s dup=310 drop=0 speed=0.644x    frame=  490 fps= 32 q=-0.0 size= 5953500kB time=00:00:09.80 bitrate=4976640.0kbits/s dup=326 drop=0 speed=0.645x    frame=  501 fps= 32 q=-0.0 Lsize= 6087150kB time=00:00:10.02 bitrate=4976640.0kbits/s dup=335 drop=0 speed=0.642x    
video:6087150kB audio:0kB subtitle:0kB other streams:0kB global headers:0kB muxing overhead: 0.000000%
